inDegrees=yes
name=IK-live
DataType=double
version=3
OpenSimVersion=4.1
endheader
time	pelvis_tilt	pelvis_list	pelvis_rotation	pelvis_tx	pelvis_ty	pelvis_tz	hip_flexion_r	hip_adduction_r	hip_rotation_r	knee_angle_r	ankle_angle_r	subtalar_angle_r	mtp_angle_r	hip_flexion_l	hip_adduction_l	hip_rotation_l	knee_angle_l	ankle_angle_l	subtalar_angle_l	mtp_angle_l	lumbar_extension	lumbar_bending	lumbar_rotation	neck_flex	neck_latbend	neck_rot	arm_flex_r	arm_add_r	arm_rot_r	elbow_flex_r	pro_sup_r	wrist_flex_r	wrist_dev_r	arm_flex_l	arm_add_l	arm_rot_l	elbow_flex_l	pro_sup_l	wrist_flex_l	wrist_dev_l
11.0183284	-63.06331643456205	26.71667124449579	-227.5441106933114	0.2341366603171506	0.04326292228651554	-1.326684523481465	-66.1565057398229	-38.58034867092441	36.73266656692689	5.899560354604904	2.451982624139334	1.987972377786656	0	-72.09465264497562	36.04621459948941	-47.85750711873511	9.793848132074926	-0.4439473045988533	4.250290820099795	0	-21.37711699760957	1.659277491615732	3.206407148933037	0	0	0	88.05341555436868	-14.99636005720686	-0.4029943476371185	74.71435522259642	44.99265919655375	0	4.995749285361825	88.08001667763887	-15.03650901330202	-0.5400537877373849	74.7003548122161	45.00383754795848	0	4.995749285361825
11.1686875	-31.43826287269772	20.243510650901	-230.047799626647	0.2341366603171506	0.04326292228651554	-1.326684523481465	-37.77023076331722	-19.78762026111993	45.40936140878593	5.899560354604904	2.451982624139334	1.987972377786656	0	-43.13487588957617	18.07986901229724	-58.38726148009631	9.793848132074926	-0.4439473045988533	4.250290820099795	0	-21.37711699760957	1.659277491615732	3.206407148933037	0	0	0	88.05364613146648	-14.99636131880596	-0.40280452968785	74.71454866195438	44.99267288216055	0	4.995766933725519	88.08024410306047	-15.03649635928769	-0.5397994081893976	74.70055772714575	45.00383039426601	0	4.995766933725519
11.3346056	-13.72770406340601	13.08301452938974	-236.3243540306016	0.2341366603171506	0.04326292228651554	-1.326684523481465	-20.29600531068422	-12.19988057136268	51.15535400722164	5.899560354604904	2.451982624139334	1.987972377786656	0	-25.63607751585478	11.03740792596735	-64.78474386119748	9.793848132074926	-0.4439473045988533	4.250290820099795	0	-21.37711699760957	1.659277491615732	3.206407148933037	0	0	0	88.05367631790307	-14.99636148306934	-0.4027798475864491	74.71457378185896	44.9926746564144	0	4.995769225130211	88.08027387689039	-15.03649471170335	-0.5397663311227028	74.70058407754144	45.00382946683428	0	4.995769225130211
11.5015198	-11.51337191990811	12.20166749935766	-233.7736108642593	0.2341366603171506	0.04326292228651554	-1.326684523481465	-18.80826234257201	-9.990219107281369	48.68390649942094	5.899560354604904	2.451982624139334	1.987972377786656	0	-24.06218924443739	8.6141336110529	-62.52286058318419	9.793848132074926	-0.4439473045988533	4.250290820099795	0	-21.37711699760957	1.659277491615732	3.206407148933037	0	0	0	88.05369711450267	-14.99636159620066	-0.4027628500680575	74.71459107911167	44.99267587781895	0	4.995770802179927	88.08029438922948	-15.03649357698063	-0.5397435523473332	74.70060222209494	45.00382882838598	0	4.995770802179927
11.6673929	-10.42714721339564	11.91049225333711	-201.192774381944	0.2341366603171506	0.04326292228651554	-1.326684523481465	-20.06783609098548	1.611436222998365	17.85047921923776	5.899560354604904	2.451982624139334	1.987972377786656	0	-23.85544168658179	-5.408151961681301	-32.77448633039354	9.793848132074926	-0.4439473045988533	4.250290820099795	0	-21.37711699760957	1.659277491615732	3.206407148933037	0	0	0	88.05372466575764	-14.99636174624477	-0.4027402995682581	74.71461403517849	44.99267750001825	0	4.995772897172178	88.080321563897	-15.03649207201726	-0.5397133318896601	74.70062630265794	45.00382798043564	0	4.995772897172178
11.8343064	-14.44747609478603	4.895358175326624	-192.7565345845485	0.2341366603171506	0.04326292228651554	-1.326684523481465	-21.95117254861974	-2.943765802943828	7.706951691973468	5.899560354604904	2.451982624139334	1.987972377786656	0	-24.99137972888081	-1.46785088272952	-22.36943936187364	9.793848132074926	-0.4439473045988533	4.250290820099795	0	-21.37711699760957	1.659277491615732	3.206407148933037	0	0	0	88.05375066542229	-14.99636188754775	-0.4027190760613202	74.71463562417783	44.99267902233377	0	4.995774859595596	88.08034720818257	-15.03649065472865	-0.5396848897683272	74.70064894918798	45.00382718469621	0	4.995774859595596
11.9843905	-14.44542921440203	4.895105240298408	-192.7576038153016	0.2341366603171506	0.04326292228651554	-1.326684523481465	-21.94693247351694	-2.946988194023437	7.739783195921618	5.899560354604904	2.451982624139334	1.987972377786656	0	-24.98756049119517	-1.463544060306895	-22.37285145237598	9.793848132074926	-0.4439473045988533	4.250290820099795	0	-21.37711699760957	1.659277491615732	3.206407148933037	0	0	0	88.07278588195872	-14.99646234992738	-0.3878879809351781	74.72929928442123	44.99357184533812	0	4.996709622324203	88.0991222424903	-15.03548300311681	-0.519809450653812	74.71603089854199	45.00336049137677	0	4.996709622324203
12.1509681	-15.34841362460897	0.6864343521905784	-183.6097545595237	0.2341366603171506	0.04326292228651554	-1.326684523481465	-22.8023042010768	-3.456682172284676	-2.335913912626366	5.899560354604904	2.451982624139334	1.987972377786656	0	-25.0257414210396	-1.40766805048887	-12.30838857705182	9.793848132074926	-0.4439473045988533	4.250290820099795	0	-21.37711699760957	1.659277491615732	3.206407148933037	0	0	0	88.07280570486799	-14.99646245547704	-0.3878722888828391	74.72931499249742	44.99357286798904	0	4.996710789062244	88.09914179445005	-15.0354819444389	-0.5197884214003486	74.71604737607026	45.00335995682026	0	4.996710789062244
12.3177127	-16.37189053360873	-5.279252896744024	-164.8685099582288	0.2341366603171506	0.04326292228651554	-1.326684523481465	-25.23601068623389	-1.143309327549317	-21.88159525675952	5.899560354604904	2.451982624139334	1.987972377786656	0	-25.7059533988247	-4.174832445874961	7.177214468149322	9.793848132074926	-0.4439473045988533	4.250290820099795	0	-21.37711699760957	1.659277491615732	3.206407148933037	0	0	0	88.07284005084894	-14.99646263933288	-0.3878449122850612	74.7293424472643	44.99357466399531	0	4.996712844748323	88.0991756709718	-15.03548010033938	-0.5197517334332509	74.71607617569511	45.00335901801817	0	4.996712844748323
12.4846021	-21.35256973585633	-10.42455531312262	-168.8397533603758	0.2341366603171506	0.04326292228651554	-1.326684523481465	-31.15503335588149	-6.132620030960523	-20.88376397175405	5.899560354604904	2.451982624139334	1.987972377786656	0	-31.7208961349778	0.7981442072044361	6.144475051396649	9.793848132074926	-0.4439473045988533	4.250290820099795	0	-21.37711699760957	1.659277491615732	3.206407148933037	0	0	0	88.07285982320164	-14.99646274453133	-0.3878292762695678	74.72935809453	44.99357568171477	0	4.996714004677714	88.09919517306615	-15.0354790451844	-0.5197307792764682	74.71609258943398	45.00335848603937	0	4.996714004677714
12.6515093	-44.21083721681075	-29.7466670713368	-183.0542296636864	0.2341366603171506	0.04326292228651554	-1.326684523481465	-56.20454765150419	-22.84727985409714	-28.78057135951741	5.899560354604904	2.451982624139334	1.987972377786656	0	-56.03074527542135	17.5002399349979	13.94007832965412	9.793848132074926	-0.4439473045988533	4.250290820099795	0	-21.37711699760957	1.659277491615732	3.206407148933037	0	0	0	88.07288535174523	-14.99646288071302	-0.3878090191673611	74.72937838511653	44.99357700478622	0	4.996715515373205	88.09922035267253	-15.03547767926278	-0.5197036323011093	74.71611387394441	45.00335779444811	0	4.996715515373205
